<?xml version="1.0" encoding="UTF-8" standalone="no"?>
<!DOCTYPE svg PUBLIC "-//W3C//DTD SVG 1.1//EN"
 "http://www.w3.org/Graphics/SVG/1.1/DTD/svg11.dtd">
<!-- Generated by graphviz version 2.50.0 (0)
 -->
<!-- Pages: 1 -->
<svg width="1716pt" height="399pt"
 viewBox="0.00 0.00 1716.17 399.23" xmlns="http://www.w3.org/2000/svg" xmlns:xlink="http://www.w3.org/1999/xlink">
<g id="graph0" class="graph" transform="scale(1 1) rotate(0) translate(4 395.23)">
<polygon fill="white" stroke="transparent" points="-4,4 -4,-395.23 1712.17,-395.23 1712.17,4 -4,4"/>
<!-- &#45;1 -->
<g id="node1" class="node">
<title>&#45;1</title>
<polygon fill="lightgray" stroke="black" points="817.4,-391.23 793.4,-391.23 793.4,-373.23 817.4,-373.23 817.4,-391.23"/>
<text text-anchor="middle" x="805.4" y="-380.03" font-family="Times,serif" font-size="9.00">&#45;1</text>
</g>
<!-- 2644722017748038328357028146179185518 -->
<g id="node5" class="node">
<title>2644722017748038328357028146179185518</title>
<ellipse fill="white" stroke="black" cx="129.4" cy="-201.46" rx="129.3" ry="129.3"/>
<text text-anchor="middle" x="129.4" y="-199.26" font-family="Times,serif" font-size="9.00">2644722017748038328357028146179185518</text>
</g>
<!-- &#45;1&#45;&gt;2644722017748038328357028146179185518 -->
<g id="edge1" class="edge">
<title>&#45;1&#45;&gt;2644722017748038328357028146179185518</title>
<path fill="none" stroke="red" stroke-width="0.25" d="M793.38,-381.34C723.14,-381.82 365.68,-382.01 267.4,-337.23 250.82,-329.67 235.05,-319.24 220.5,-307.49"/>
<polygon fill="red" stroke="red" stroke-width="0.25" points="222.46,-304.57 212.54,-300.84 217.97,-309.94 222.46,-304.57"/>
</g>
<!-- 336072167439759874319750991105980300480 -->
<g id="node6" class="node">
<title>336072167439759874319750991105980300480</title>
<ellipse fill="white" stroke="black" cx="412.4" cy="-201.46" rx="135.53" ry="135.53"/>
<text text-anchor="middle" x="412.4" y="-199.26" font-family="Times,serif" font-size="9.00">336072167439759874319750991105980300480</text>
</g>
<!-- &#45;1&#45;&gt;336072167439759874319750991105980300480 -->
<g id="edge3" class="edge">
<title>&#45;1&#45;&gt;336072167439759874319750991105980300480</title>
<path fill="none" stroke="red" stroke-width="0.22" d="M793.29,-381.44C756,-381.61 640.38,-378.57 557.4,-337.23 541.7,-329.4 526.49,-319.34 512.21,-308.25"/>
<polygon fill="red" stroke="red" stroke-width="0.22" points="514.37,-305.49 504.37,-301.98 510,-310.96 514.37,-305.49"/>
</g>
<!-- 172794450822554047423380781861806344471 -->
<g id="node7" class="node">
<title>172794450822554047423380781861806344471</title>
<ellipse fill="white" stroke="black" cx="702.4" cy="-201.46" rx="135.53" ry="135.53"/>
<text text-anchor="middle" x="702.4" y="-199.26" font-family="Times,serif" font-size="9.00">172794450822554047423380781861806344471</text>
</g>
<!-- &#45;1&#45;&gt;172794450822554047423380781861806344471 -->
<g id="edge2" class="edge">
<title>&#45;1&#45;&gt;172794450822554047423380781861806344471</title>
<path fill="none" stroke="green" stroke-width="0.33" d="M800.71,-373.08C795.38,-363.84 786.01,-347.57 775.1,-328.63"/>
<polygon fill="green" stroke="green" stroke-width="0.33" points="778.01,-326.68 769.99,-319.76 771.95,-330.17 778.01,-326.68"/>
</g>
<!-- 248520923900931991965314768848024754284 -->
<g id="node8" class="node">
<title>248520923900931991965314768848024754284</title>
<ellipse fill="white" stroke="black" cx="992.4" cy="-201.46" rx="135.53" ry="135.53"/>
<text text-anchor="middle" x="992.4" y="-199.26" font-family="Times,serif" font-size="9.00">248520923900931991965314768848024754284</text>
</g>
<!-- &#45;1&#45;&gt;248520923900931991965314768848024754284 -->
<g id="edge5" class="edge">
<title>&#45;1&#45;&gt;248520923900931991965314768848024754284</title>
<path fill="none" stroke="red" stroke-width="0.13" d="M813.92,-373.08C827.75,-359.87 856.61,-332.27 887.17,-303.05"/>
<polygon fill="red" stroke="red" stroke-width="0.13" points="889.74,-305.44 894.55,-296 884.9,-300.38 889.74,-305.44"/>
</g>
<!-- 172485878403107225045655317980385486443 -->
<g id="node9" class="node">
<title>172485878403107225045655317980385486443</title>
<ellipse fill="white" stroke="black" cx="1282.4" cy="-201.46" rx="135.53" ry="135.53"/>
<text text-anchor="middle" x="1282.4" y="-199.26" font-family="Times,serif" font-size="9.00">172485878403107225045655317980385486443</text>
</g>
<!-- &#45;1&#45;&gt;172485878403107225045655317980385486443 -->
<g id="edge4" class="edge">
<title>&#45;1&#45;&gt;172485878403107225045655317980385486443</title>
<path fill="none" stroke="green" stroke-width="0.25" d="M817.78,-379.8C876.26,-373.03 1122.57,-344.21 1137.4,-337.23 1153.4,-329.69 1168.83,-319.73 1183.27,-308.64"/>
<polygon fill="green" stroke="green" stroke-width="0.25" points="1185.52,-311.32 1191.19,-302.37 1181.17,-305.83 1185.52,-311.32"/>
</g>
<!-- 245865732714578779895711534012081411378 -->
<g id="node10" class="node">
<title>245865732714578779895711534012081411378</title>
<ellipse fill="white" stroke="black" cx="1572.4" cy="-201.46" rx="135.53" ry="135.53"/>
<text text-anchor="middle" x="1572.4" y="-199.26" font-family="Times,serif" font-size="9.00">245865732714578779895711534012081411378</text>
</g>
<!-- &#45;1&#45;&gt;245865732714578779895711534012081411378 -->
<g id="edge6" class="edge">
<title>&#45;1&#45;&gt;245865732714578779895711534012081411378</title>
<path fill="none" stroke="red" stroke-width="0.12" d="M817.61,-379.7C831.92,-377.95 856.35,-375.08 877.4,-373.23 999.41,-362.46 1314.93,-385.72 1427.4,-337.23 1443.78,-330.17 1459.47,-320.43 1474.09,-309.4"/>
<polygon fill="red" stroke="red" stroke-width="0.12" points="1476.37,-312.05 1482.1,-303.14 1472.06,-306.54 1476.37,-312.05"/>
</g>
<!-- &#45;2 -->
<g id="node2" class="node">
<title>&#45;2</title>
<polygon fill="lightgray" stroke="black" points="910.4,-391.23 886.4,-391.23 886.4,-373.23 910.4,-373.23 910.4,-391.23"/>
<text text-anchor="middle" x="898.4" y="-380.03" font-family="Times,serif" font-size="9.00">&#45;2</text>
</g>
<!-- &#45;2&#45;&gt;2644722017748038328357028146179185518 -->
<g id="edge7" class="edge">
<title>&#45;2&#45;&gt;2644722017748038328357028146179185518</title>
<path fill="none" stroke="red" stroke-width="0.44" d="M886.19,-379.7C871.88,-377.94 847.45,-375.07 826.4,-373.23 702.4,-362.35 381.12,-387.86 267.4,-337.23 250.75,-329.81 234.95,-319.46 220.38,-307.76"/>
<polygon fill="red" stroke="red" stroke-width="0.44" points="222.33,-304.83 212.41,-301.12 217.86,-310.21 222.33,-304.83"/>
</g>
<!-- &#45;2&#45;&gt;336072167439759874319750991105980300480 -->
<g id="edge9" class="edge">
<title>&#45;2&#45;&gt;336072167439759874319750991105980300480</title>
<path fill="none" stroke="red" stroke-width="0.25" d="M886.08,-379.85C826.74,-373.2 572.67,-344.39 557.4,-337.23 541.39,-329.72 525.95,-319.78 511.51,-308.69"/>
<polygon fill="red" stroke="red" stroke-width="0.25" points="513.6,-305.89 503.59,-302.42 509.26,-311.37 513.6,-305.89"/>
</g>
<!-- &#45;2&#45;&gt;172794450822554047423380781861806344471 -->
<g id="edge8" class="edge">
<title>&#45;2&#45;&gt;172794450822554047423380781861806344471</title>
<path fill="none" stroke="green" stroke-width="0.21" d="M888.91,-373.22C878.6,-364.48 861.69,-350.02 847.4,-337.23 834.77,-325.92 821.63,-313.97 808.64,-302.04"/>
<polygon fill="green" stroke="green" stroke-width="0.21" points="810.74,-299.22 801.01,-295.02 806,-304.37 810.74,-299.22"/>
</g>
<!-- &#45;2&#45;&gt;248520923900931991965314768848024754284 -->
<g id="edge11" class="edge">
<title>&#45;2&#45;&gt;248520923900931991965314768848024754284</title>
<path fill="none" stroke="green" stroke-width="0.1" d="M902.68,-373.08C907.34,-364.22 915.41,-348.89 924.84,-330.94"/>
<polygon fill="green" stroke="green" stroke-width="0.1" points="928.02,-332.41 929.58,-321.93 921.83,-329.15 928.02,-332.41"/>
</g>
<!-- &#45;2&#45;&gt;172485878403107225045655317980385486443 -->
<g id="edge10" class="edge">
<title>&#45;2&#45;&gt;172485878403107225045655317980385486443</title>
<path fill="none" stroke="green" stroke-width="0.15" d="M910.61,-379.07C958.65,-370.59 1132.2,-339.84 1137.4,-337.23 1153.08,-329.35 1168.27,-319.26 1182.54,-308.15"/>
<polygon fill="green" stroke="green" stroke-width="0.15" points="1184.76,-310.86 1190.38,-301.88 1180.38,-305.4 1184.76,-310.86"/>
</g>
<!-- &#45;2&#45;&gt;245865732714578779895711534012081411378 -->
<g id="edge12" class="edge">
<title>&#45;2&#45;&gt;245865732714578779895711534012081411378</title>
<path fill="none" stroke="red" stroke-width="0.18" d="M910.72,-378.8C920.18,-377.02 933.57,-374.67 945.4,-373.23 1052.02,-360.2 1328.97,-380.21 1427.4,-337.23 1443.74,-330.09 1459.42,-320.31 1474.03,-309.25"/>
<polygon fill="red" stroke="red" stroke-width="0.18" points="1476.31,-311.91 1482.03,-302.99 1472,-306.4 1476.31,-311.91"/>
</g>
<!-- &#45;3 -->
<g id="node3" class="node">
<title>&#45;3</title>
<polygon fill="lightgray" stroke="black" points="978.4,-391.23 954.4,-391.23 954.4,-373.23 978.4,-373.23 978.4,-391.23"/>
<text text-anchor="middle" x="966.4" y="-380.03" font-family="Times,serif" font-size="9.00">&#45;3</text>
</g>
<!-- &#45;3&#45;&gt;2644722017748038328357028146179185518 -->
<g id="edge13" class="edge">
<title>&#45;3&#45;&gt;2644722017748038328357028146179185518</title>
<path fill="none" stroke="red" stroke-width="0.22" d="M954.09,-378.74C944.64,-376.92 931.25,-374.56 919.4,-373.23 775.2,-357.03 400.23,-395.65 267.4,-337.23 250.72,-329.89 234.89,-319.58 220.31,-307.9"/>
<polygon fill="red" stroke="red" stroke-width="0.22" points="222.27,-304.98 212.34,-301.28 217.8,-310.36 222.27,-304.98"/>
</g>
<!-- &#45;3&#45;&gt;336072167439759874319750991105980300480 -->
<g id="edge15" class="edge">
<title>&#45;3&#45;&gt;336072167439759874319750991105980300480</title>
<path fill="none" stroke="red" stroke-width="0.15" d="M954.07,-378.89C944.61,-377.15 931.21,-374.82 919.4,-373.23 759.16,-351.65 704.77,-403.74 557.4,-337.23 541.28,-329.95 525.78,-320.15 511.3,-309.14"/>
<polygon fill="red" stroke="red" stroke-width="0.15" points="513.39,-306.33 503.37,-302.91 509.07,-311.84 513.39,-306.33"/>
</g>
<!-- &#45;3&#45;&gt;172794450822554047423380781861806344471 -->
<g id="edge14" class="edge">
<title>&#45;3&#45;&gt;172794450822554047423380781861806344471</title>
<path fill="none" stroke="green" stroke-width="0.2" d="M954.21,-378.42C931.84,-372.91 883.23,-359.27 847.4,-337.23 832.72,-328.2 818.22,-317.53 804.41,-306.22"/>
<polygon fill="green" stroke="green" stroke-width="0.2" points="806.27,-303.21 796.35,-299.49 801.78,-308.59 806.27,-303.21"/>
</g>
<!-- &#45;3&#45;&gt;248520923900931991965314768848024754284 -->
<g id="edge17" class="edge">
<title>&#45;3&#45;&gt;248520923900931991965314768848024754284</title>
<path fill="none" stroke="red" stroke-width="0.35" d="M967.59,-373.08C968.49,-366.84 969.87,-357.39 971.51,-346.07"/>
<polygon fill="red" stroke="red" stroke-width="0.35" points="974.98,-346.56 972.96,-336.16 968.05,-345.55 974.98,-346.56"/>
</g>
<!-- &#45;3&#45;&gt;172485878403107225045655317980385486443 -->
<g id="edge16" class="edge">
<title>&#45;3&#45;&gt;172485878403107225045655317980385486443</title>
<path fill="none" stroke="green" stroke-width="0.19" d="M978.76,-380.15C1008.01,-377.15 1083.07,-366.93 1137.4,-337.23 1152.79,-328.81 1167.81,-318.39 1182,-307.11"/>
<polygon fill="green" stroke="green" stroke-width="0.19" points="1184.25,-309.79 1189.79,-300.75 1179.82,-304.36 1184.25,-309.79"/>
</g>
<!-- &#45;3&#45;&gt;245865732714578779895711534012081411378 -->
<g id="edge18" class="edge">
<title>&#45;3&#45;&gt;245865732714578779895711534012081411378</title>
<path fill="none" stroke="green" stroke-width="0.11" d="M978.74,-381.11C1043.44,-380.34 1343.79,-374.77 1427.4,-337.23 1443.54,-329.98 1459.05,-320.2 1473.53,-309.2"/>
<polygon fill="green" stroke="green" stroke-width="0.11" points="1475.76,-311.9 1481.47,-302.97 1471.44,-306.39 1475.76,-311.9"/>
</g>
<!-- 0 -->
<g id="node4" class="node">
<title>0</title>
<ellipse fill="lightblue" stroke="black" cx="847.4" cy="-14.85" rx="14.7" ry="14.7"/>
<text text-anchor="middle" x="847.4" y="-12.65" font-family="Times,serif" font-size="9.00">0</text>
</g>
<!-- 2644722017748038328357028146179185518&#45;&gt;0 -->
<g id="edge19" class="edge">
<title>2644722017748038328357028146179185518&#45;&gt;0</title>
<path fill="none" stroke="red" stroke-width="0.41" d="M212.57,-102.16C229.26,-87.71 247.76,-74.7 267.4,-65.7 368.48,-19.39 724.24,-15.86 822.24,-15.78"/>
<polygon fill="red" stroke="red" stroke-width="0.41" points="822.39,-19.28 832.39,-15.79 822.4,-12.28 822.39,-19.28"/>
</g>
<!-- 336072167439759874319750991105980300480&#45;&gt;0 -->
<g id="edge21" class="edge">
<title>336072167439759874319750991105980300480&#45;&gt;0</title>
<path fill="none" stroke="green" stroke-width="0.23" d="M504.33,-100.86C520.84,-87.31 538.77,-74.92 557.4,-65.7 647.38,-21.17 770.11,-15.63 822.28,-15.46"/>
<polygon fill="green" stroke="green" stroke-width="0.23" points="822.3,-18.96 832.31,-15.49 822.32,-11.96 822.3,-18.96"/>
</g>
<!-- 172794450822554047423380781861806344471&#45;&gt;0 -->
<g id="edge20" class="edge">
<title>172794450822554047423380781861806344471&#45;&gt;0</title>
<path fill="none" stroke="red" stroke-width="0.38" d="M785.91,-94.14C803.63,-71.57 820.46,-50.15 832.02,-35.44"/>
<polygon fill="red" stroke="red" stroke-width="0.38" points="835.07,-37.22 838.49,-27.19 829.56,-32.9 835.07,-37.22"/>
</g>
<!-- 248520923900931991965314768848024754284&#45;&gt;0 -->
<g id="edge23" class="edge">
<title>248520923900931991965314768848024754284&#45;&gt;0</title>
<path fill="none" stroke="green" stroke-width="0.11" d="M908.89,-94.14C891.17,-71.57 874.34,-50.15 862.79,-35.44"/>
<polygon fill="green" stroke="green" stroke-width="0.11" points="865.24,-32.9 856.31,-27.19 859.73,-37.22 865.24,-32.9"/>
</g>
<!-- 172485878403107225045655317980385486443&#45;&gt;0 -->
<g id="edge22" class="edge">
<title>172485878403107225045655317980385486443&#45;&gt;0</title>
<path fill="none" stroke="green" stroke-width="0.12" d="M1190.47,-100.86C1173.96,-87.31 1156.04,-74.92 1137.4,-65.7 1047.42,-21.17 924.69,-15.63 872.52,-15.46"/>
<polygon fill="green" stroke="green" stroke-width="0.12" points="872.48,-11.96 862.49,-15.49 872.5,-18.96 872.48,-11.96"/>
</g>
<!-- 245865732714578779895711534012081411378&#45;&gt;0 -->
<g id="edge24" class="edge">
<title>245865732714578779895711534012081411378&#45;&gt;0</title>
<path fill="none" stroke="green" stroke-width="0.26" d="M1481.95,-100.13C1465.13,-86.49 1446.72,-74.26 1427.4,-65.7 1325.76,-20.64 970.41,-16.21 872.53,-15.86"/>
<polygon fill="green" stroke="green" stroke-width="0.26" points="872.4,-12.36 862.39,-15.83 872.38,-19.36 872.4,-12.36"/>
</g>
</g>
</svg>
