<?xml version="1.0" encoding="UTF-8" standalone="no"?>
<!DOCTYPE svg PUBLIC "-//W3C//DTD SVG 1.1//EN"
 "http://www.w3.org/Graphics/SVG/1.1/DTD/svg11.dtd">
<!-- Generated by graphviz version 2.50.0 (0)
 -->
<!-- Pages: 1 -->
<svg width="1718pt" height="399pt"
 viewBox="0.00 0.00 1717.53 399.23" xmlns="http://www.w3.org/2000/svg" xmlns:xlink="http://www.w3.org/1999/xlink">
<g id="graph0" class="graph" transform="scale(1 1) rotate(0) translate(4 395.23)">
<polygon fill="white" stroke="transparent" points="-4,4 -4,-395.23 1713.53,-395.23 1713.53,4 -4,4"/>
<!-- &#45;1 -->
<g id="node1" class="node">
<title>&#45;1</title>
<polygon fill="lightgray" stroke="black" points="822.76,-391.23 798.76,-391.23 798.76,-373.23 822.76,-373.23 822.76,-391.23"/>
<text text-anchor="middle" x="810.76" y="-380.03" font-family="Times,serif" font-size="9.00">&#45;1</text>
</g>
<!-- 160354871642787724867163575221569099623 -->
<g id="node6" class="node">
<title>160354871642787724867163575221569099623</title>
<ellipse fill="white" stroke="black" cx="135.76" cy="-201.46" rx="135.53" ry="135.53"/>
<text text-anchor="middle" x="135.76" y="-199.26" font-family="Times,serif" font-size="9.00">160354871642787724867163575221569099623</text>
</g>
<!-- &#45;1&#45;&gt;160354871642787724867163575221569099623 -->
<g id="edge2" class="edge">
<title>&#45;1&#45;&gt;160354871642787724867163575221569099623</title>
<path fill="none" stroke="red" stroke-width="0.15" d="M798.48,-381.29C728.31,-381.46 377.9,-380.12 280.76,-337.23 264.45,-330.02 248.79,-320.2 234.2,-309.12"/>
<polygon fill="red" stroke="red" stroke-width="0.15" points="236.23,-306.27 226.2,-302.85 231.9,-311.77 236.23,-306.27"/>
</g>
<!-- 14063237331013449836540859076747207077 -->
<g id="node7" class="node">
<title>14063237331013449836540859076747207077</title>
<ellipse fill="white" stroke="black" cx="422.76" cy="-201.46" rx="132.87" ry="132.87"/>
<text text-anchor="middle" x="422.76" y="-199.26" font-family="Times,serif" font-size="9.00">14063237331013449836540859076747207077</text>
</g>
<!-- &#45;1&#45;&gt;14063237331013449836540859076747207077 -->
<g id="edge4" class="edge">
<title>&#45;1&#45;&gt;14063237331013449836540859076747207077</title>
<path fill="none" stroke="green" stroke-width="0.27" d="M798.74,-381.45C761.69,-381.67 646.85,-378.73 564.76,-337.23 548.9,-329.2 533.59,-318.83 519.26,-307.41"/>
<polygon fill="green" stroke="green" stroke-width="0.27" points="521.36,-304.6 511.41,-300.96 516.92,-310.01 521.36,-304.6"/>
</g>
<!-- 321713542873608569423041113959004145455 -->
<g id="node8" class="node">
<title>321713542873608569423041113959004145455</title>
<ellipse fill="white" stroke="black" cx="709.76" cy="-201.46" rx="135.53" ry="135.53"/>
<text text-anchor="middle" x="709.76" y="-199.26" font-family="Times,serif" font-size="9.00">321713542873608569423041113959004145455</text>
</g>
<!-- &#45;1&#45;&gt;321713542873608569423041113959004145455 -->
<g id="edge5" class="edge">
<title>&#45;1&#45;&gt;321713542873608569423041113959004145455</title>
<path fill="none" stroke="red" stroke-width="0.35" d="M806.16,-373.08C800.98,-363.9 791.87,-347.78 781.26,-329"/>
<polygon fill="red" stroke="red" stroke-width="0.35" points="784.25,-327.18 776.28,-320.2 778.15,-330.63 784.25,-327.18"/>
</g>
<!-- 55267327658606828284871724359278253080 -->
<g id="node9" class="node">
<title>55267327658606828284871724359278253080</title>
<ellipse fill="white" stroke="black" cx="996.76" cy="-201.46" rx="132.87" ry="132.87"/>
<text text-anchor="middle" x="996.76" y="-199.26" font-family="Times,serif" font-size="9.00">55267327658606828284871724359278253080</text>
</g>
<!-- &#45;1&#45;&gt;55267327658606828284871724359278253080 -->
<g id="edge3" class="edge">
<title>&#45;1&#45;&gt;55267327658606828284871724359278253080</title>
<path fill="none" stroke="green" stroke-width="0.49" d="M819.24,-373.08C833.25,-359.61 862.81,-331.21 893.85,-301.38"/>
<polygon fill="green" stroke="green" stroke-width="0.49" points="896.55,-303.63 901.34,-294.18 891.7,-298.59 896.55,-303.63"/>
</g>
<!-- 234739610094864944777261960175942918732 -->
<g id="node10" class="node">
<title>234739610094864944777261960175942918732</title>
<ellipse fill="white" stroke="black" cx="1283.76" cy="-201.46" rx="135.53" ry="135.53"/>
<text text-anchor="middle" x="1283.76" y="-199.26" font-family="Times,serif" font-size="9.00">234739610094864944777261960175942918732</text>
</g>
<!-- &#45;1&#45;&gt;234739610094864944777261960175942918732 -->
<g id="edge1" class="edge">
<title>&#45;1&#45;&gt;234739610094864944777261960175942918732</title>
<path fill="none" stroke="red" stroke-width="0.5" d="M823,-379.8C880.78,-373.02 1124.12,-344.14 1138.76,-337.23 1154.76,-329.68 1170.18,-319.71 1184.62,-308.61"/>
<polygon fill="red" stroke="red" stroke-width="0.5" points="1186.88,-311.29 1192.54,-302.34 1182.53,-305.81 1186.88,-311.29"/>
</g>
<!-- 150382836363153825444995469523401167228 -->
<g id="node11" class="node">
<title>150382836363153825444995469523401167228</title>
<ellipse fill="white" stroke="black" cx="1573.76" cy="-201.46" rx="135.53" ry="135.53"/>
<text text-anchor="middle" x="1573.76" y="-199.26" font-family="Times,serif" font-size="9.00">150382836363153825444995469523401167228</text>
</g>
<!-- &#45;1&#45;&gt;150382836363153825444995469523401167228 -->
<g id="edge6" class="edge">
<title>&#45;1&#45;&gt;150382836363153825444995469523401167228</title>
<path fill="none" stroke="green" stroke-width="0.45" d="M822.98,-379.7C837.29,-377.95 861.72,-375.09 882.76,-373.23 1003.89,-362.51 1317.12,-385.4 1428.76,-337.23 1445.14,-330.16 1460.83,-320.42 1475.45,-309.39"/>
<polygon fill="green" stroke="green" stroke-width="0.45" points="1477.73,-312.05 1483.46,-303.13 1473.42,-306.53 1477.73,-312.05"/>
</g>
<!-- &#45;2 -->
<g id="node2" class="node">
<title>&#45;2</title>
<polygon fill="lightgray" stroke="black" points="915.76,-391.23 891.76,-391.23 891.76,-373.23 915.76,-373.23 915.76,-391.23"/>
<text text-anchor="middle" x="903.76" y="-380.03" font-family="Times,serif" font-size="9.00">&#45;2</text>
</g>
<!-- &#45;2&#45;&gt;160354871642787724867163575221569099623 -->
<g id="edge8" class="edge">
<title>&#45;2&#45;&gt;160354871642787724867163575221569099623</title>
<path fill="none" stroke="green" stroke-width="0.5" d="M891.55,-379.7C877.24,-377.95 852.81,-375.08 831.76,-373.23 709.53,-362.45 393.44,-385.81 280.76,-337.23 264.39,-330.17 248.69,-320.43 234.08,-309.4"/>
<polygon fill="green" stroke="green" stroke-width="0.5" points="236.1,-306.54 226.07,-303.14 231.79,-312.06 236.1,-306.54"/>
</g>
<!-- &#45;2&#45;&gt;14063237331013449836540859076747207077 -->
<g id="edge10" class="edge">
<title>&#45;2&#45;&gt;14063237331013449836540859076747207077</title>
<path fill="none" stroke="red" stroke-width="0.15" d="M891.51,-379.85C832.52,-373.21 579.9,-344.43 564.76,-337.23 548.58,-329.53 533.04,-319.28 518.56,-307.86"/>
<polygon fill="red" stroke="red" stroke-width="0.15" points="520.6,-305 510.63,-301.41 516.18,-310.43 520.6,-305"/>
</g>
<!-- &#45;2&#45;&gt;321713542873608569423041113959004145455 -->
<g id="edge11" class="edge">
<title>&#45;2&#45;&gt;321713542873608569423041113959004145455</title>
<path fill="none" stroke="red" stroke-width="0.14" stroke-dasharray="1,5" d="M894.69,-373.16C884.82,-364.38 868.61,-349.87 854.76,-337.23 842.25,-325.8 829.18,-313.77 816.22,-301.79"/>
<polygon fill="red" stroke="red" stroke-width="0.14" points="818.33,-298.98 808.61,-294.76 813.58,-304.12 818.33,-298.98"/>
</g>
<!-- &#45;2&#45;&gt;55267327658606828284871724359278253080 -->
<g id="edge9" class="edge">
<title>&#45;2&#45;&gt;55267327658606828284871724359278253080</title>
<path fill="none" stroke="green" stroke-width="0.1" d="M908,-373.08C912.81,-363.84 921.27,-347.57 931.13,-328.63"/>
<polygon fill="green" stroke="green" stroke-width="0.1" points="934.23,-330.25 935.74,-319.76 928.02,-327.02 934.23,-330.25"/>
</g>
<!-- &#45;2&#45;&gt;234739610094864944777261960175942918732 -->
<g id="edge7" class="edge">
<title>&#45;2&#45;&gt;234739610094864944777261960175942918732</title>
<path fill="none" stroke="green" stroke-width="0.5" d="M915.77,-379.07C963,-370.58 1133.66,-339.8 1138.76,-337.23 1154.43,-329.33 1169.61,-319.22 1183.88,-308.1"/>
<polygon fill="green" stroke="green" stroke-width="0.5" points="1186.1,-310.81 1191.72,-301.83 1181.72,-305.35 1186.1,-310.81"/>
</g>
<!-- &#45;2&#45;&gt;150382836363153825444995469523401167228 -->
<g id="edge12" class="edge">
<title>&#45;2&#45;&gt;150382836363153825444995469523401167228</title>
<path fill="none" stroke="red" stroke-width="0.1" d="M915.82,-378.8C925.07,-377.02 938.18,-374.67 949.76,-373.23 1055.69,-360.07 1330.95,-379.96 1428.76,-337.23 1445.11,-330.09 1460.78,-320.31 1475.39,-309.24"/>
<polygon fill="red" stroke="red" stroke-width="0.1" points="1477.67,-311.9 1483.39,-302.98 1473.36,-306.39 1477.67,-311.9"/>
</g>
<!-- &#45;3 -->
<g id="node3" class="node">
<title>&#45;3</title>
<polygon fill="lightgray" stroke="black" points="982.76,-391.23 958.76,-391.23 958.76,-373.23 982.76,-373.23 982.76,-391.23"/>
<text text-anchor="middle" x="970.76" y="-380.03" font-family="Times,serif" font-size="9.00">&#45;3</text>
</g>
<!-- &#45;3&#45;&gt;160354871642787724867163575221569099623 -->
<g id="edge14" class="edge">
<title>&#45;3&#45;&gt;160354871642787724867163575221569099623</title>
<path fill="none" stroke="green" stroke-width="0.41" d="M958.71,-378.74C949.47,-376.92 936.36,-374.56 924.76,-373.23 782.36,-356.92 412.65,-393.35 280.76,-337.23 264.36,-330.24 248.64,-320.56 234.01,-309.54"/>
<polygon fill="green" stroke="green" stroke-width="0.41" points="236.04,-306.69 226,-303.3 231.74,-312.21 236.04,-306.69"/>
</g>
<!-- &#45;3&#45;&gt;14063237331013449836540859076747207077 -->
<g id="edge16" class="edge">
<title>&#45;3&#45;&gt;14063237331013449836540859076747207077</title>
<path fill="none" stroke="green" stroke-width="0.47" d="M958.7,-378.88C949.44,-377.14 936.33,-374.81 924.76,-373.23 765.45,-351.44 710.96,-404.18 564.76,-337.23 548.47,-329.76 532.86,-319.66 518.35,-308.31"/>
<polygon fill="green" stroke="green" stroke-width="0.47" points="520.38,-305.45 510.4,-301.89 515.98,-310.9 520.38,-305.45"/>
</g>
<!-- &#45;3&#45;&gt;321713542873608569423041113959004145455 -->
<g id="edge17" class="edge">
<title>&#45;3&#45;&gt;321713542873608569423041113959004145455</title>
<path fill="none" stroke="red" stroke-width="0.28" d="M958.54,-378.27C936.59,-372.6 889.53,-358.82 854.76,-337.23 840.24,-328.21 825.89,-317.61 812.19,-306.38"/>
<polygon fill="red" stroke="red" stroke-width="0.28" points="814.12,-303.43 804.2,-299.71 809.63,-308.8 814.12,-303.43"/>
</g>
<!-- &#45;3&#45;&gt;55267327658606828284871724359278253080 -->
<g id="edge15" class="edge">
<title>&#45;3&#45;&gt;55267327658606828284871724359278253080</title>
<path fill="none" stroke="green" stroke-width="0.21" d="M971.95,-373.08C972.93,-366.33 974.46,-355.83 976.28,-343.28"/>
<polygon fill="green" stroke="green" stroke-width="0.21" points="979.76,-343.71 977.73,-333.31 972.83,-342.71 979.76,-343.71"/>
</g>
<!-- &#45;3&#45;&gt;234739610094864944777261960175942918732 -->
<g id="edge13" class="edge">
<title>&#45;3&#45;&gt;234739610094864944777261960175942918732</title>
<path fill="none" stroke="green" stroke-width="0.26" d="M982.91,-380.1C1011.65,-377 1085.39,-366.56 1138.76,-337.23 1153.87,-328.93 1168.62,-318.7 1182.58,-307.63"/>
<polygon fill="green" stroke="green" stroke-width="0.26" points="1185.16,-310.05 1190.71,-301.03 1180.74,-304.62 1185.16,-310.05"/>
</g>
<!-- &#45;3&#45;&gt;150382836363153825444995469523401167228 -->
<g id="edge18" class="edge">
<title>&#45;3&#45;&gt;150382836363153825444995469523401167228</title>
<path fill="none" stroke="green" stroke-width="0.5" d="M983.02,-381.1C1047.3,-380.29 1345.7,-374.55 1428.76,-337.23 1444.9,-329.98 1460.41,-320.2 1474.89,-309.19"/>
<polygon fill="green" stroke="green" stroke-width="0.5" points="1477.12,-311.89 1482.82,-302.96 1472.8,-306.38 1477.12,-311.89"/>
</g>
<!-- 0 -->
<g id="node4" class="node">
<title>0</title>
<ellipse fill="lightblue" stroke="black" cx="828.76" cy="-14.85" rx="14.7" ry="14.7"/>
<text text-anchor="middle" x="828.76" y="-12.65" font-family="Times,serif" font-size="9.00">0</text>
</g>
<!-- 1 -->
<g id="node5" class="node">
<title>1</title>
<ellipse fill="lightblue" stroke="black" cx="936.76" cy="-14.85" rx="14.7" ry="14.7"/>
<text text-anchor="middle" x="936.76" y="-12.65" font-family="Times,serif" font-size="9.00">1</text>
</g>
<!-- 160354871642787724867163575221569099623&#45;&gt;0 -->
<g id="edge21" class="edge">
<title>160354871642787724867163575221569099623&#45;&gt;0</title>
<path fill="none" stroke="red" stroke-width="0.34" d="M226.26,-100.21C243.07,-86.57 261.46,-74.31 280.76,-65.7 376.32,-23.05 709.65,-16.89 803.82,-16"/>
<polygon fill="red" stroke="red" stroke-width="0.34" points="803.88,-19.5 813.85,-15.92 803.82,-12.5 803.88,-19.5"/>
</g>
<!-- 160354871642787724867163575221569099623&#45;&gt;1 -->
<g id="edge22" class="edge">
<title>160354871642787724867163575221569099623&#45;&gt;1</title>
<path fill="none" stroke="red" stroke-width="0.49" d="M226.05,-99.74C242.89,-86.16 261.35,-74.04 280.76,-65.7 397.78,-15.42 726.22,-44.08 852.76,-29.7 872.88,-27.41 895.52,-23.61 912.23,-20.56"/>
<polygon fill="red" stroke="red" stroke-width="0.49" points="913.07,-23.97 922.26,-18.7 911.79,-17.09 913.07,-23.97"/>
</g>
<!-- 14063237331013449836540859076747207077&#45;&gt;0 -->
<g id="edge25" class="edge">
<title>14063237331013449836540859076747207077&#45;&gt;0</title>
<path fill="none" stroke="red" stroke-width="0.46" d="M511.49,-102.12C528,-88.15 546.01,-75.3 564.76,-65.7 645.08,-24.6 754.75,-17.15 803.56,-15.96"/>
<polygon fill="red" stroke="red" stroke-width="0.46" points="803.87,-19.46 813.81,-15.79 803.75,-12.46 803.87,-19.46"/>
</g>
<!-- 14063237331013449836540859076747207077&#45;&gt;1 -->
<g id="edge26" class="edge">
<title>14063237331013449836540859076747207077&#45;&gt;1</title>
<path fill="none" stroke="red" stroke-width="0.12" d="M510.59,-101.44C527.27,-87.46 545.56,-74.78 564.76,-65.7 681.37,-10.54 725.1,-48.19 852.76,-29.7 872.8,-26.8 895.45,-23.03 912.17,-20.16"/>
<polygon fill="red" stroke="red" stroke-width="0.12" points="912.97,-23.58 922.22,-18.42 911.77,-16.68 912.97,-23.58"/>
</g>
<!-- 321713542873608569423041113959004145455&#45;&gt;0 -->
<g id="edge27" class="edge">
<title>321713542873608569423041113959004145455&#45;&gt;0</title>
<path fill="none" stroke="green" stroke-width="0.5" d="M782.93,-86.96C795.43,-67.56 807.09,-49.48 815.52,-36.4"/>
<polygon fill="green" stroke="green" stroke-width="0.5" points="818.57,-38.12 821.05,-27.82 812.69,-34.33 818.57,-38.12"/>
</g>
<!-- 321713542873608569423041113959004145455&#45;&gt;1 -->
<g id="edge28" class="edge">
<title>321713542873608569423041113959004145455&#45;&gt;1</title>
<path fill="none" stroke="green" stroke-width="0.48" d="M806.48,-105.6C822.17,-91.68 838.59,-77.93 854.76,-65.7 874.09,-51.08 897.93,-36.98 914.91,-27.53"/>
<polygon fill="green" stroke="green" stroke-width="0.48" points="916.94,-30.41 924.03,-22.53 913.58,-24.27 916.94,-30.41"/>
</g>
<!-- 55267327658606828284871724359278253080&#45;&gt;0 -->
<g id="edge23" class="edge">
<title>55267327658606828284871724359278253080&#45;&gt;0</title>
<path fill="none" stroke="green" stroke-width="0.36" d="M907.6,-102.48C883.79,-76.32 860.54,-50.77 845.53,-34.27"/>
<polygon fill="green" stroke="green" stroke-width="0.36" points="847.79,-31.56 838.47,-26.52 842.62,-36.27 847.79,-31.56"/>
</g>
<!-- 55267327658606828284871724359278253080&#45;&gt;1 -->
<g id="edge24" class="edge">
<title>55267327658606828284871724359278253080&#45;&gt;1</title>
<path fill="none" stroke="red" stroke-width="0.12" d="M955.91,-74.77C951.53,-61.27 947.49,-48.87 944.28,-38.96"/>
<polygon fill="red" stroke="red" stroke-width="0.12" points="947.54,-37.68 941.12,-29.26 940.88,-39.85 947.54,-37.68"/>
</g>
<!-- 234739610094864944777261960175942918732&#45;&gt;0 -->
<g id="edge19" class="edge">
<title>234739610094864944777261960175942918732&#45;&gt;0</title>
<path fill="none" stroke="green" stroke-width="0.23" d="M1192.34,-100.99C1175.71,-87.34 1157.61,-74.88 1138.76,-65.7 1047.33,-21.15 1013.17,-45.97 912.76,-29.7 892.78,-26.46 870.13,-22.72 853.39,-19.95"/>
<polygon fill="green" stroke="green" stroke-width="0.23" points="853.77,-16.46 843.33,-18.28 852.62,-23.37 853.77,-16.46"/>
</g>
<!-- 234739610094864944777261960175942918732&#45;&gt;1 -->
<g id="edge20" class="edge">
<title>234739610094864944777261960175942918732&#45;&gt;1</title>
<path fill="none" stroke="green" stroke-width="0.26" d="M1191.24,-102.01C1174.8,-88.32 1157.06,-75.58 1138.76,-65.7 1080.23,-34.07 1001.36,-22.15 961.72,-17.95"/>
<polygon fill="green" stroke="green" stroke-width="0.26" points="961.92,-14.45 951.63,-16.96 961.24,-21.42 961.92,-14.45"/>
</g>
<!-- 150382836363153825444995469523401167228&#45;&gt;0 -->
<g id="edge29" class="edge">
<title>150382836363153825444995469523401167228&#45;&gt;0</title>
<path fill="none" stroke="green" stroke-width="0.17" d="M1483.43,-99.86C1466.6,-86.26 1448.16,-74.11 1428.76,-65.7 1323.31,-19.96 1026.93,-43.06 912.76,-29.7 892.65,-27.34 870.01,-23.54 853.31,-20.52"/>
<polygon fill="green" stroke="green" stroke-width="0.17" points="853.74,-17.04 843.27,-18.67 852.47,-23.92 853.74,-17.04"/>
</g>
<!-- 150382836363153825444995469523401167228&#45;&gt;1 -->
<g id="edge30" class="edge">
<title>150382836363153825444995469523401167228&#45;&gt;1</title>
<path fill="none" stroke="red" stroke-width="0.26" d="M1482.79,-100.05C1466.09,-86.52 1447.86,-74.34 1428.76,-65.7 1344,-27.35 1050.13,-18.2 961.96,-16.3"/>
<polygon fill="red" stroke="red" stroke-width="0.26" points="961.88,-12.8 951.81,-16.09 961.74,-19.8 961.88,-12.8"/>
</g>
</g>
</svg>
